<svg width="46" height="42" viewBox="0 0 46 42" fill="none" xmlns="http://www.w3.org/2000/svg">
<path d="M43.5722 17.5H2.42778C1.08695 17.5 0 18.9887 0 20.825V21.175C0 23.0113 1.08695 24.5 2.42778 24.5H43.5722C44.913 24.5 46 23.0113 46 21.175V20.825C46 18.9887 44.913 17.5 43.5722 17.5Z" fill="white"/>
<path d="M43.5722 35H2.42778C1.08695 35 0 36.4887 0 38.325V38.675C0 40.5113 1.08695 42 2.42778 42H43.5722C44.913 42 46 40.5113 46 38.675V38.325C46 36.4887 44.913 35 43.5722 35Z" fill="white"/>
<path d="M43.5722 0H2.42778C1.08695 0 0 1.48865 0 3.325V3.675C0 5.51135 1.08695 7 2.42778 7H43.5722C44.913 7 46 5.51135 46 3.675V3.325C46 1.48865 44.913 0 43.5722 0Z" fill="white"/>
</svg>
